<svg fill="none" height="33" viewBox="0 0 59 33" width="59" xmlns="http://www.w3.org/2000/svg"><path clip-rule="evenodd" d="m23.4106 17.3118 2.5657-.208-1.2947-3.3743zm8.3152-5.6774c.0841.0776.1699.1799.2578.3069.0879.1272.1787.2597.2724.3977l3.3449 4.6976v-5.0146c0-.3258.0713-.5761.2138-.7507.0038-.0045.008-.0085.0118-.0129l-4.1222.358c.0071.0061.0146.0116.0215.018zm-.0215-.018c-.0046-.0039-.0074-.0064-.0096-.0083.004.0035.0096.0083.0096.0083zm-10.2525-.4696.9093-.0808c.2879-.0257.4817-.2265.4817-.4993v-4.87154c0-.22806.0916-.44855.266-.64746.1754-.18884.3931-.29575.6476-.31842l1.2226-.10868c.2449-.02175.4551.04893.6314.21761.1769.15945.2658.35739.2658.58722v4.87157c0 .2727.1943.4391.4823.4135l.9245-.0822c.0458-.0041.0901-.0182.132-.0401.2756-.1444.3338-.3282.3338-.4577v-4.87161c0-.22897.0915-.44939.2664-.64752.1753-.1889.393-.29575.6473-.31835l1.2222-.10868c.2473-.022.4593.04863.6475.2162.1771.15945.2662.35733.2662.58716v4.87159c0 .27271.1939.43911.4819.41351l.9086-.0807c.2879-.0257.4817-.22657.4817-.49929v-4.87158c0-.72536-.2821-1.29804-.8343-1.69972-.5342-.40419-1.1913-.57391-1.9516-.50628l-1.2223.10869c-.7206.06408-1.3409.31859-1.8498.75767-.5065-.34878-1.1222-.49339-1.8336-.4301l-1.2226.10875c-.7536.06696-1.4142.35287-1.9673.85475-.5353.49845-.8186 1.13718-.8186 1.84671v4.8716c0 .2728.1935.4391.4813.4135zm24.5228-2.85973c.5335.4023 1.1898.57299 1.9511.5053 1.0545-.09378 1.8532-.26545 2.4466-.52411.2052-.09176.3233-.26124.3233-.46535v-.58844c.0006-.38482-.3261-.47487-.5573-.39741-.5593.18188-1.2825.31035-2.2126.39301-.2542.02261-.472-.04533-.6476-.20411-.1761-.15957-.2658-.36081-.2658-.60042v-2.84685c0-.23851.0897-.45673.2656-.64655.1765-.18987.3942-.29679.6478-.31933.929-.0826 1.6729-.08266 2.2092-.00085.2639.0416.5608-.11425.5608-.49602v-.58862c0-.19348-.1055-.3398-.3098-.40926-.5894-.153345-1.3944-.182242-2.4602-.08743-.7606.06763-1.4228.36021-1.967.86874-.5353.49821-.8186 1.1373-.8186 1.84579v2.84686c-.0001.72016.2804 1.29651.8345 1.71505zm11.6779-7.461669c-.5346-.404128-1.1913-.573843-1.9518-.506275-.9523.084675-1.6699.207227-2.1441.368572-.3383.12689-.3748.375112-.3748.475672v.61544c0 .11938.0322.2178.0949.29245.0802.09451.2002.1396.3381.12732.0228-.00202.0782-.01161.1006-.01821.3674-.10996 1.0354-.20765 1.9854-.29214.2448-.02175.4553.049.6316.21761.1773.15939.2662.35733.2662.58716v.40706l-2.1201.18854c-.7619.06775-1.4234.3594-1.9676.86788-.5428.50658-.8183 1.12306-.8183 1.83272 0 .71906.2806 1.29595.8343 1.71517.5339.40217 1.1903.57281 1.9516.50518l3.5265-.31359c.2743-.02438.466-.22959.466-.49785v-4.87165c0-.70849-.2832-1.29711-.8185-1.701059zm-1.0539 5.613249-2.1202.18854c-.2542.0226-.4718-.0454-.6472-.20418-.1769-.15951-.2664-.36069-.2664-.60035 0-.23002.0895-.4439.2664-.6336.1754-.18889.393-.29581.6472-.31841l2.1202-.18859zm-14.595 5.58175-1.1482.0931v5.7222l1.3181-.1069c.2889-.0234.5155-.0495.6795-.0781s.3339-.0807.5096-.1564c.1757-.0755.328-.1741.457-.2958.5818-.5302.8728-1.3857.8728-2.5666 0-.8319-.1281-1.4446-.3837-1.8379-.2559-.3933-.5712-.6313-.9461-.7141-.3748-.0826-.828-.1025-1.359-.0595zm-24.4404-9.58716 1.5205-.13526c.288-.02566.4817-.22629.4817-.49919v-.68448c0-.219691-.1492-.428078-.4817-.398448l-1.5205.135198c-.3325.029569-.4813.26447-.4813.48416v.68448c0 .27296.1934.43914.4813.41354zm16.0413.43626c.1081-.05816.1975-.1374.2695-.22733l1.839 1.86064-1.0968.36442c-.035-.10447-.0979-.19855-.1906-.26862-.2714-.20515-.6791-.13979-.9129.14656-.2331.28628-.2032.68466.0678.88993.2705.20497.6796.13874.9121-.14729.0643-.07838.1067-.16501.1311-.2547l1.1005.50328c-.0001.02145-.0033.0424-.0033.06379 0 2.31315 1.91 4.01861 4.2661 3.80906 2.3563-.20955 4.2665-2.25475 4.2665-4.5679s-1.9103-4.01843-4.2665-3.80888c-.883.07857-1.7037.41506-2.3841.92708l-.9295-.63231c.0686-.10538.1129-.22653.1195-.35604.0181-.374075-.275-.665426-.6554-.650458-.3794.016373-.7024.33326-.721.708128-.0179.37401.2751.66536.655.64905.1038-.00391.2026-.03226.2931-.07661l.2032 1.25288-2.5133-.83758c.0167-.13746-.0018-.2776-.0638-.40486-.1813-.37126-.6482-.49955-1.0428-.28695-.3945.2126-.5673.68668-.3859 1.05788.1808.37126.6488.50004 1.0425.28683zm7.3295 3.97884c.3129-.0278.5655.19941.5655.50512 0 .30699-.2526.57824-.5655.6061-.3128.02779-.5655-.19856-.5655-.50549 0-.30576.2527-.57787.5655-.60573zm-1.9676.17503c.3131-.02786.5661.19929.5661.50499 0 .30693-.2529.57825-.5661.6061-.3128.02786-.5654-.19855-.5654-.50542 0-.30576.2526-.57793.5654-.60567zm4.3298 3.58443c-.0146-.0005-.021-.0007-.023-.0008.0032.0001.0136.0005.023.0008zm-3.511.2806c-.0347.0107-.0684.0221-.1003.0348l.1003-.0088zm3.5252-.2802c-.0041-.0001-.0061-.0002-.0095-.0003.0053.0002.0095.0003.0095.0003zm11.0067 5.9468c-.0035.0084-.0074.0176-.0118.0279.0024-.0057.0068-.0161.0118-.0279zm-1.3826 1.4573c-.5155.2718-1.1267.4364-1.8334.4937-.8475.0687-1.5465-.0319-2.0972-.3016-.3906-.1946-.7079-.4707-.952-.8286s-.3661-.7151-.3661-1.0716c0-.2071.0733-.3903.2196-.5498.1464-.1594.3329-.2484.5595-.2668.1835-.0148.3387.0301.4656.1348.1269.1048.2353.2666.3252.4854.1092.2596.2274.4744.3543.6442.1269.17.3055.3041.536.4022.2304.0983.5331.1322.908.1019.5155-.0419.9344-.1937 1.2565-.4556.3223-.2619.4833-.5691.4833-.9219 0-.2798-.0869-.4999-.2606-.6603-.1739-.1604-.3983-.2754-.6737-.3451-.2753-.0697-.6435-.1376-1.1042-.2038-.6172-.0917-1.1335-.2158-1.5495-.3718-.4158-.1561-.7459-.3881-.9899-.6961-.2442-.3081-.3662-.7054-.3662-1.1924 0-.4639.1288-.8864.3867-1.2677.2577-.3812.6306-.6885 1.1188-.9217.1367-.0653.281-.1228.4312-.174l-6.4761.5625c.2371.0076.4561.0281.6557.0627.4217.0732.8044.2435 1.148.5108.8943.679 1.3415 1.7853 1.3415 3.3187 0 .5061-.045.9718-.1347 1.3969-.0899.4252-.2285.8131-.4159 1.1637-.1876.3507-.4277.6702-.7206.9584-.2305.222-.4823.4053-.7556.5502-.2735.1449-.5673.255-.8817.3302-.3144.0753-.6688.1289-1.0632.161l-2.2671.1838c-.3163.0256-.5546-.002-.7146-.083-.1602-.0809-.2646-.2048-.3134-.3714-.0489-.1666-.0733-.386-.0733-.6582v-6.1822c0-.3681.084-.6413.252-.8198.0813-.0864.1875-.1551.3173-.2068l-2.7199.2363c.006.0059.0125.011.0185.0171.1443.1514.2166.3899.2166.7157v6.6307c0 .74-.3124 1.1352-.9372 1.1859-.1562.0127-.2968.0019-.4217-.0319-.1251-.034-.2423-.0944-.3515-.1814-.1095-.087-.2109-.1908-.3046-.3118-.0938-.1208-.1875-.2445-.2812-.3711l-3.2629-4.6467v4.94c0 .322-.0761.5717-.2284.7488s-.3477.2755-.5858.2948c-.2461.0199-.4434-.0475-.5917-.2023-.1485-.1547-.2226-.3911-.2226-.7093v-6.5043c0-.276.0312-.4951.0937-.6575.0533-.1282.1322-.2418.2358-.3415l-4.8199.4187c.0643.0522.1211.1112.1702.1771.0996.1338.1835.2795.2519.4368.0683.1575.1552.368.2606.6316l2.2437 5.2584c.1758.3999.2636.6937.2636.8816 0 .1955-.083.3814-.2489.5579-.166.1763-.3661.274-.6005.293-.1367.0111-.2539-.0034-.3514-.0433-.0977-.0401-.1796-.0985-.246-.1756-.0665-.0771-.1377-.1978-.2139-.3623-.0762-.1643-.1416-.3096-.1962-.4355l-.4101-1.0249-3.4913.283-.4101 1.1145c-.1601.4347-.2968.7305-.41.8872-.1134.1566-.2988.2456-.5565.2664-.2188.0178-.4121-.0452-.58-.1887-.1679-.1436-.2518-.3151-.2518-.5144 0-.1151.0195-.2355.0585-.3614.039-.1258.1035-.3017.1933-.5274l2.1968-5.653c.0624-.1622.1376-.3571.2255-.5847.0879-.2275.1815-.4182.2812-.572.0468-.0724.1009-.1389.1616-.2001l-5.6356.4896c.0478.0137.0948.0285.1403.0452.2694.0893.5076.2291.7147.4193.2069.1902.3641.4182.4715.6835.1074.2655.1611.5515.1611.8582 0 .6287-.1807 1.1456-.5419 1.5507-.3613.405-.9089.7158-1.6431.9326.3085.136.6034.3498.8846.6413.2812.2916.532.6058.7527.9425.2206.3369.3925.6431.5155.9186.1231.2758.1845.4673.1845.5745 0 .1113-.0361.2244-.1084.3396-.0723.1151-.1708.2093-.2958.2827s-.2694.1167-.4335.1301c-.1953.0158-.3594-.016-.492-.0953-.1329-.0793-.2471-.1842-.3427-.3144-.0958-.1303-.2255-.323-.3896-.578l-.6971-1.0822c-.2499-.3976-.4735-.6977-.6707-.9002-.1972-.2026-.3974-.3358-.6004-.3999-.2031-.0641-.459-.0836-.7674-.0586l-.6092.0494v2.7087c0 .3565-.0801.6257-.2402.8073-.1602.1817-.369.283-.6268.3039-.2773.0225-.492-.0483-.6444-.2124-.1523-.1639-.2284-.4165-.2284-.7578v-6.4869c0-.3681.0839-.6413.2518-.8198.0096-.0101.0206-.0191.0308-.0288l-3.43821.2987c.08251.0293.16217.0629.23834.102.20307.1024.38267.2384.53897.4078.1561.1695.2753.3611.3573.5748.082.2139.123.4435.123.6888 0 .8435-.4296 1.4955-1.28871 1.9562 1.12861.2613 1.69291.9018 1.69291 1.9216 0 .4716-.123.9062-.369 1.3037-.2461.3977-.578.7035-.99583.9175-.26166.1286-.56238.2287-.90215.3003-.33977.0717-.73619.1258-1.1892.1625l-2.62438.2128c-.37889.0307-.64932-.0308-.81131-.1845-.01561-.0148-.03028-.0309-.0444-.0477v.3339s.03246.0615.09564.0777c2.15235.554 39.91413 10.2733 39.91413 10.2733l10.0038-15.4781v-.4746c-.0545.1281-.1183.2533-.1942.3748-.2676.4282-.6591.778-1.1746 1.0498zm-43.37031-4.4726c-.00367-.0013-.0056-.002-.00846-.003.00472.0017.00846.003.00846.003zm9.22191-9.93746-.9249.0823c-.3325.02957-.4816.26526-.4816.48519v6.88297c0 .2727.1937.4391.4816.4135l.9249-.0822c.2876-.0256.4813-.2265.4813-.4993v-6.88291c0-.21987-.1488-.42918-.4813-.39955zm35.4351 7.91846c-.0835 0-.0865.0584-.0865.0584.0001.0072.0007.0143.0007.0215 0 .2033-.0732.3922-.2197.567-.1464.1749-.329.2711-.5477.2889-.1992.0161-.3506-.0205-.454-.1099-.1035-.0894-.2158-.2403-.3368-.4529-.1563-.3055-.3437-.5386-.5624-.6992-.2188-.1605-.5702-.2212-1.0545-.1819-.4491.0365-.8113.1627-1.0866.3785-.2754.216-.413.46-.413.7322 0 .1688.0468.3106.1406.4257.0937.1152.2226.2101.3866.285.1641.075.33.1305.498.1667.1678.0362.4451.0866.8318.1511.4842.072.9227.159 1.3151.2614.3925.1024.7264.2383 1.0017.4076.2753.1695.49.3945.6443.6753.0087.0158.0162.0326.0244.0488v-2.9657c0-.0002-.0108-.0585-.082-.0585zm-47.03951.4389v-4.87159c0-.70849-.28312-1.29712-.81883-1.70107-.53453-.40412-1.19156-.57384-1.95169-.50627-.9524.08467-1.66993.20723-2.14451.36857-.33816.12695-.37447.37511-.37447.47567v.61545c0 .11937.03221.21779.09452.29245.08034.09451.20054.13959.33846.12731.0227-.00201.07817-.0116.10037-.0182.36793-.11003 1.0356-.20766 1.98563-.29215.24451-.02175.45531.049.63197.21761.1766.15946.26578.35734.26578.58717v.40712l-2.11996.18847c-.76162.06775-1.42338.35941-1.9673.86776-.543416.5067-.81895 1.12319-.81895 1.8328 0 .719.280882 1.2965.83481 1.7151.53366.4022 1.19013.5729 1.95144.5052l3.52648-.3136c.2746-.0244.46625-.2296.46625-.4978zm-1.87284-.9594-2.11995.1885c-.25427.0226-.47222-.0453-.64727-.2041-.17722-.1595-.26639-.3608-.26639-.6004 0-.23.08917-.4439.26639-.63359.17505-.18884.393-.29581.64727-.31842l2.11995-.18853zm9.15075 5.5017 1.5582-.1262c.4178-.0339.7694-.0978 1.0544-.192.2851-.094.5028-.2324.6532-.4152.1503-.1828.2255-.4238.2255-.7228 0-.2338-.0607-.435-.1816-.6035-.1211-.1685-.289-.288-.5038-.3588-.2031-.0679-.6034-.0777-1.2009-.0292l-1.6051.13v2.3177zm-5.07873-4.2815.90923-.0809c.2879-.0256.4811-.2264.4811-.4992v-4.87156c0-.228.0914-.44848.2664-.64758.1753-.18878.393-.29569.6472-.3183l1.2229-.10874c.2448-.02175.4548.04906.6314.21761.1768.15945.2661.35733.2661.58716v4.87161c0 .2727.1937.4391.4816.4136l.9252-.0824c.274-.0243.4657-.2296.4657-.4978v-4.87155c0-.72529-.2823-1.29791-.8343-1.69966-.5341-.40418-1.1853-.57439-1.9357-.50768l-1.2229.10875c-.753.06702-1.4139.35293-1.96696.85481-.5354.49845-.81864 1.13718-.81864 1.84671v4.87162c.00006.2726.19376.4391.48167.4135zm-.37503 6.0981c-.30457-.167-.75963-.226-1.36486-.1769l-1.8101.1467v2.4613l1.86867-.1514c1.17546-.0953 1.76328-.5589 1.76328-1.3909-.00007-.4256-.15235-.7218-.45699-.8888zm-3.17502-1.2552 1.59339-.1291c.43348-.0351.76827-.1025 1.00463-.2022.23624-.0997.41688-.2676.54187-.504.09756-.169.14644-.3531.14644-.5524 0-.4256-.15434-.6958-.46277-.8108-.30849-.1149-.77909-.1467-1.41175-.0955l-1.41175.1144v2.1796z" fill="#d9d9d9" fill-rule="evenodd"/></svg>