<svg fill="none" height="40" viewBox="0 0 85 40" width="85" xmlns="http://www.w3.org/2000/svg" xmlns:xlink="http://www.w3.org/1999/xlink"><clipPath id="a"><path d="m0 0h85v40h-85z"/></clipPath><g clip-path="url(#a)" fill="#d9d9d9"><path clip-rule="evenodd" d="m37.5698.776863c-.0003-.205951-.0816-.403388-.2261-.549017-.1444-.1456302-.3403-.2275675-.5446-.227846h-3.0835c-.2044 0-.4004.0818478-.545.227538-.1445.14569-.2257.343288-.2257.549325v3.108507c-.0001.10206.0197.20314.0584.29745.0387.09432.0954.18002.167.25218.0716.07217.1566.12939.2502.16838.0935.03899.1938.05899.2951.05885h2.0654c.2038.00139.3987.08396.5423.2297s.2242.34281.2242.54822v2.64112c0 .20613.0811.40384.2256.5497s.3405.22794.545.22822h2.0822c.2043 0 .4004.08184.5449.22753s.2257.34329.2257.54933v1.08735c0 .2062-.0812.4039-.2257.5497-.1445.1459-.3405.228-.5449.2283h-2.1553c-.2044 0-.4004.0818-.5449.2275s-.2257.3433-.2257.5493v3.1085c.0002.206.0815.4034.226.549.1444.1457.3403.2276.5446.2279h2.1594c.2044 0 .4004.0818.545.2275.1445.1457.2257.3433.2257.5494v2.4863c-.0002.1021.0197.2033.0583.2977.0387.0943.0954.1801.167.2523.0716.0723.1566.1296.2501.1687.0936.0391.1939.0593.2952.0593h9.3269c.2047 0 .4009-.082.5457-.2279.1447-.1459.226-.3437.226-.5501v-3.1106c0-.2063-.0813-.4042-.226-.55-.1448-.1459-.341-.2279-.5457-.2279h-8.3996c-.1013.0002-.2016-.0198-.2951-.0588-.0936-.039-.1786-.0962-.2502-.1684s-.1283-.1579-.167-.2522-.0585-.1954-.0584-.2975v-1.1305c0-.206.0812-.4036.2257-.5493.1446-.1457.3406-.2276.545-.2276h2.1583c.1013.0002.2016-.0198.2951-.0588.0936-.039.1786-.0962.2502-.1684s.1283-.1579.167-.2522.0585-.1954.0584-.2974v-2.59695c0-.20603.0812-.40363.2257-.54932s.3405-.22754.5449-.22754h2.0811c.1013.00014.2016-.01985.2953-.05883.0936-.03898.1786-.09618.2503-.16833.0717-.07216.1285-.15784.1673-.25216.0388-.09433.0588-.19543.0588-.29754v-2.40954c-.0004-.10211.0191-.2033.0576-.29778.0384-.09448.0949-.1804.1663-.25284.0713-.07245.1562-.13.2496-.16936.0935-.03936.1937-.05976.295-.06004h2.1417c.2039.00028.3996-.08105.5441-.22611.1445-.14507.226-.34202.2265-.5476v-3.1085c.0002-.102058-.0197-.203141-.0583-.297457-.0387-.094316-.0955-.180011-.1671-.252177-.0715-.072166-.1566-.129384-.2501-.168376-.0936-.0389922-.1938-.0589917-.2951-.0588532h-3.0835c-.1013-.0001385-.2016.019861-.2951.0588532-.0936.038992-.1786.09621-.2502.168376s-.1283.157861-.167.252177-.0585.195399-.0584.297457v2.40849c-.0003.20595-.0815.40338-.226.54901s-.3403.22757-.5446.22785h-2.1417c-.1013-.00014-.2016.01985-.2952.05883s-.1787.09618-.2504.16833c-.0716.07216-.1285.15784-.1673.25217-.0388.09432-.0588.19542-.0588.29753v2.59797c0 .20603-.0811.40363-.2257.54932-.1445.14569-.3405.22754-.5449.22754h-1.0797c-.2043-.00028-.4002-.08222-.5446-.22785-.1445-.14563-.2258-.34306-.226-.54901v-2.44112c.0002-.20531-.0801-.40239-.2235-.54815-.1435-.14577-.3383-.22838-.5419-.22977h-2.0707c-.1013.00014-.2015-.01986-.2951-.05885-.0935-.03899-.1786-.09621-.2501-.16838-.0716-.07216-.1284-.15786-.1671-.25217-.0386-.09432-.0585-.1954-.0583-.29746z" fill-rule="evenodd"/><path d="m0 30.5081c0-.2175.116952-.3263.350856-.3263h1.283334c.2354-.008.46863.0477.67541.1614.20679.1136.37957.2811.50038.4849l1.73757 3.0675c.04931.0874.12093.16.20743.2102.08651.0502.18475.0762.28455.0752s.19752-.0288.28306-.0807c.08553-.0518.15575-.1258.20339-.2142l1.65403-3.058c.12137-.2028.29398-.3695.50019-.4831.20621-.1135.43863-.1699.67351-.1632h1.29169c.22833 0 .34285.1088.34354.3263-.0045.1131-.04071.2226-.10442.3158l-3.52631 5.4928c-.05941.0913-.091.1982-.09084.3074v2.6927c.00144.0841-.01464.1675-.0472.2449-.03255.0775-.08086.1471-.1418.2046-.05888.0579-.12865.1034-.20522.1338-.07658.0304-.1584.045-.24066.043h-1.26977c-.16785.0029-.33015-.0606-.45214-.1768-.06094-.0575-.10925-.1271-.14181-.2046-.03256-.0774-.04863-.1608-.04719-.2449v-2.6906c-.00002-.1091-.0312-.2158-.08981-.3074l-3.516907-5.4907c-.0691665-.0927-.10917686-.2041-.114863-.32z"/><path d="m10.8295 36.0852v-5.257c-.0011-.0859.0149-.171.0472-.2505.0323-.0794.0801-.1514.1407-.2118.0605-.0603.1325-.1077.2117-.1394.0791-.0316.1638-.0468.2489-.0447h1.2614c.1686.0028.3295.072.4481.1928.1187.1208.1857.2836.1868.4536v5.2696c0 .6674.1441 1.1646.4323 1.4916s.7386.4905 1.3512.4905h1.0808c.6077 0 1.0557-.1635 1.3439-.4905s.4344-.8242.4385-1.4916v-5.2696c-.0013-.0845.0142-.1683.0456-.2466s.078-.1494.1372-.2092c.0583-.0614.1286-.11.2064-.1427.0778-.0328.1614-.0491.2457-.0479h1.2531c.0865-.002.1726.0138.2529.0466.0803.0327.1531.0817.2138.144.0607.0589.1087.1298.1412.2082s.0488.1626.0478.2476v5.257c0 1.2428-.3627 2.2074-1.088 2.8937-.7254.6864-1.7836 1.0267-3.1744 1.0211h-1.2113c-1.3965 0-2.4567-.3404-3.1807-1.0211s-1.0842-1.6453-1.0808-2.8937z"/><path d="m26.0385 40.0011c-1.4953 0-2.6439-.4063-3.4459-1.219s-1.2002-2.0555-1.1946-3.7285c0-1.6744.4177-2.9138 1.2531-3.718.8353-.8042 2.0884-1.2081 3.7591-1.2116h1.5068c.9449-.0141 1.8752.2358 2.6878.7221.802.4758 1.203 1.0723 1.203 1.7895 0 .2674-.079.4604-.2371.579-.1317.1037-.2924.1629-.4594.1695h-.803c-.3878 0-.6962-.2225-.9252-.6674s-.7964-.6674-1.7021-.6674h-1.2039c-.9858 0-1.6544.2133-2.006.64-.3515.4267-.5256 1.212-.5221 2.3559 0 1.1446.1574 1.9369.472 2.3769.3147.44.8761.6593 1.6843.6579h1.3847c.7253 0 1.2433-.1386 1.5537-.4158.1886-.1713.326-.3922.3968-.6379.0919-.3022-.1743-.5674-.4876-.5674h-2.3578c-.0837.0011-.1668-.0147-.2443-.0464-.0776-.0318-.148-.0789-.2072-.1386-.0591-.0596-.1059-.1306-.1374-.2088-.0315-.0781-.0471-.1619-.046-.2462v-.5264c-.0016-.0835.0138-.1664.0453-.2437.0314-.0773.0782-.1473.1374-.2058.0584-.0612.1287-.1097.2065-.1425s.1614-.0491.2457-.048h4.7919c.1675.003.3274.0713.446.1907s.1867.2804.1899.4493v.7558c0 1.2703-.3784 2.2485-1.1351 2.9349-.7567.6863-1.8667 1.0256-3.33 1.0179z"/><path d="m32.3309 39.3189 1.6958-6.4822c.4595-1.765 1.9545-2.6499 4.4849-2.6549h3.6402c.0783-.0014.156.015.2272.048s.1342.0817.1842.1426c.1102.1202.1707.2784.1691.4421v8.5044c.0015.0841-.0146.1676-.0472.245-.0325.0774-.0808.1471-.1418.2045-.122.1163-.2843.1798-.4521.1769h-1.2698c-.0846.0047-.1692-.0086-.2484-.0391-.0791-.0305-.151-.0775-.2109-.1379s-.1065-.1329-.1368-.2127c-.0302-.0797-.0434-.1651-.0388-.2504v-1.1505c0-.1499-.059-.2937-.1642-.3997s-.2478-.1656-.3965-.1656h-3.8093c-.1238-.0001-.2442.0412-.3422.1173-.0981.0762-.1683.183-.1997.3038l-.3425 1.2958c-.0446.1854-.1521.3493-.3039.4632-.1426.1126-.318.1748-.4991.1768h-1.3325c-.0702.0068-.141-.0032-.2067-.0292-.0656-.026-.1243-.0672-.1713-.1203-.0651-.0768-.1052-.172-.1148-.2726.0037-.069.0127-.1377.0271-.2053zm3.7477-4.3706c-.0228.0838-.0261.1718-.0097.2571s.0521.1657.1044.2348c.0522.0692.1195.1252.1967.1639.0772.0386.1623.0588.2485.0589h3.0073c.1486-.0002.2911-.0599.3962-.1658.1051-.106.1643-.2496.1645-.3994v-2.4211c0-.15-.059-.2938-.1642-.3998s-.2478-.1655-.3965-.1655h-1.3648c-.4091-.0076-.8087.1245-1.134.3747-.3219.2474-.5506.5979-.6485.9937z"/><path d="m43.5719 39.319v-8.476c-.0019-.0871.0139-.1737.0464-.2545.0325-.0807.081-.1539.1426-.215.0586-.0613.1291-.1098.207-.1426.078-.0328.1618-.0491.2462-.0479h1.2698c.0834-.0015.1661.0147.2429.0475.0769.0328.146.0815.2029.143.062.0608.1108.134.1433.2148s.0481.1675.0457.2547v6.6107c0 .1499.0591.2937.1643.3997.1051.106.2478.1656.3965.1656h5.3255c.0834-.0015.1661.0147.2429.0475.0768.0329.146.0816.2029.143.0607.059.1087.1298.1413.2082.0325.0784.0487.1626.0477.2476v.64c.001.085-.0152.1692-.0477.2476-.0326.0784-.0806.1492-.1413.2082-.0578.0598-.1273.1071-.204.1387-.0766.0317-.159.0472-.2418.0455h-7.7909c-.1682.003-.3308-.0605-.4532-.1768-.0608-.0576-.109-.1273-.1415-.2047-.0326-.0774-.0487-.1608-.0475-.2448z"/><path d="m53.3844 39.3189 1.6947-6.4822c.4595-1.765 1.9544-2.6499 4.4849-2.6549h3.6412c.0783-.0014.156.015.2272.048s.1342.0817.1842.1426c.1102.1202.1707.2784.1691.4421v8.5044c.0013.0841-.0149.1675-.0474.2449-.0326.0774-.0808.1471-.1416.2046-.1223.1164-.285.1799-.4531.1769h-1.2698c-.0846.0045-.1691-.0089-.2482-.0395-.0791-.0305-.1509-.0775-.2108-.1379-.0598-.0603-.1065-.1327-.1368-.2125-.0303-.0797-.0436-.1649-.0391-.2502v-1.1505c.0002-.0743-.0143-.1479-.0424-.2165s-.0694-.131-.1215-.1835c-.0521-.0526-.114-.0942-.1821-.1225-.0681-.0284-.1411-.0429-.2147-.0428h-3.8104c-.1237.0002-.2439.0416-.3419.1178-.0979.0761-.1683.1827-.2.3033l-.3415 1.2958c-.0445.1854-.152.3493-.3038.4632-.1429.1128-.3187.1749-.5002.1768h-1.3303c-.0703.0069-.1411-.0031-.2068-.0291s-.1244-.0672-.1712-.1204c-.0652-.0768-.1053-.172-.1149-.2726.0032-.0691.0123-.1378.0272-.2053zm3.7466-4.3706c-.0226.0839-.0258.1719-.0092.2572s.0524.1656.1047.2347.1197.1252.1969.1638.1623.0588.2485.059h3.0063c.1487 0 .2913-.0595.3965-.1655.1051-.106.1642-.2498.1642-.3997v-2.4212c.0002-.0742-.0143-.1478-.0424-.2164-.0281-.0687-.0694-.1311-.1215-.1836s-.114-.0941-.1821-.1225c-.0681-.0283-.1411-.0429-.2147-.0427h-1.3669c-.4094-.0074-.8093.1246-1.1351.3747-.3171.2479-.5425.596-.6401.9885z"/><path d="m64.6034 30.8282c.0011-.1712.0691-.3352.1893-.4562.1203-.121.283-.1893.4529-.1901h5.4904c1.3457 0 2.3387.3902 2.9792 1.1705.355.4316.5329.9832.5336 1.6548.0014.4031-.118.7971-.3425 1.1306-.1064.1729-.1538.3761-.135.5787.0189.2026.103.3935.2394.5434.4177.4337.6265.9923.6265 1.6759 0 .9824-.348 1.7316-1.0442 2.2474-.6961.5158-1.5426.7698-2.5395.7621h-5.8079c-.084.0015-.1673-.0141-.2452-.0457-.0778-.0317-.1486-.0788-.208-.1385-.0609-.0588-.1091-.1297-.1416-.2081s-.0487-.1627-.0474-.2477zm2.5468 6.7139c0 .1497.0589.2933.1639.3993.1049.106.2473.1657.3958.166h3.3029c.3466 0 .6129-.1053.7977-.3158.1849-.2106.2768-.4948.2768-.858 0-.3631-.093-.6494-.2768-.8579-.1837-.2084-.4511-.3158-.7977-.3158h-3.3029c-.1484 0-.2908.0595-.3958.1653-.1049.1058-.1639.2493-.1639.399zm0-4.1328c0 .1497.059.2932.1639.399.105.1058.2474.1653.3958.1653h3.0533c.1246.0061.2491-.013.3662-.0562s.2245-.1096.3157-.1954c.0886-.0954.157-.208.2011-.3308.0442-.1229.0631-.2535.0557-.384.0078-.1316-.011-.2634-.0551-.3875-.0442-.1241-.1128-.2379-.2017-.3346-.0904-.0873-.1975-.1552-.3147-.1995-.1172-.0444-.2421-.0642-.3672-.0584h-3.0533c-.1484 0-.2908.0594-.3958.1653-.1049.1058-.1639.2493-.1639.3989z"/><path d="m75.0507 37.4463c0-.2674.079-.4579.2371-.5716.1297-.1075.2906-.1696.4584-.1768h.804c.4052 0 .7136.2224.9252.6673.2116.445.6867.6674 1.4254.6674l2.3641.0474c.7922 0 1.1883-.2611 1.1883-.7832 0-.3944-.4839-.7053-1.4515-.9326-.4323-.1018-.9098-.2039-1.4327-.3064-.5228-.1024-1.0428-.2319-1.56-.3884-.4859-.1442-.96-.3261-1.418-.5442-.4152-.1954-.7768-.4899-1.0537-.8579-.2687-.3762-.4087-.8303-.3988-1.2938 0-.9123.3219-1.614.9658-2.1053.644-.4912 1.7519-.7386 3.3238-.7421l1.7146.0411c.8831-.012 1.7501.2388 2.4925.721.7435.4772 1.1149 1.0737 1.1142 1.7895 0 .2681-.0787.4611-.236.579-.1277.1069-.2863.1693-.4521.1779h-.8041c-.4051 0-.7135-.2225-.9252-.6674-.2116-.4449-.6867-.6698-1.4253-.6747l-2.0331-.0411c-.7929 0-1.189.2611-1.1883.7832 0 .2863.2499.5204.7497.7021.5953.2055 1.2047.3669 1.8232.4832.7164.1361 1.4344.3018 2.1542.4968.6774.1717 1.3048.5029 1.8306.9664.2425.2044.4363.4611.5672.7512.1308.29.1954.606.1888.9246 0 .9123-.3244 1.6159-.9732 2.1106-.6489.4948-1.7543.7404-3.3165.7369l-2.0456-.0411c-.8844.0113-1.753-.2371-2.4998-.7147-.7421-.4822-1.1132-1.0836-1.1132-1.8043z"/></g></svg>